<!DOCTYPE svg PUBLIC "-//W3C//DTD SVG 1.1//EN" "http://www.w3.org/Graphics/SVG/1.1/DTD/svg11.dtd">

<!-- Uploaded to: SVG Repo, www.svgrepo.com, Transformed by: SVG Repo Mixer Tools -->
<svg height="800px" width="800px" version="1.1" id="Layer_1" xmlns="http://www.w3.org/2000/svg" xmlns:xlink="http://www.w3.org/1999/xlink" viewBox="0 0 512.002 512.002" xml:space="preserve" fill="#000000">

<g id="SVGRepo_bgCarrier" stroke-width="0"/>

<g id="SVGRepo_tracerCarrier" stroke-linecap="round" stroke-linejoin="round"/>

<g id="SVGRepo_iconCarrier"> <circle style="fill:#e91e63;" cx="256.001" cy="256.001" r="256.001"/> <ellipse style="fill:#ED4C54;" cx="256.001" cy="421.638" rx="182.285" ry="14.369"/> <path style="fill:#666666;" d="M65.978,67.222h380.039c12.486,0,22.701,10.217,22.701,22.702v234.108H43.28V89.923 c0-12.486,10.215-22.702,22.702-22.702L65.978,67.222L65.978,67.222z"/> <path style="fill:#DCE3DB;" d="M58.694,308.616h394.611V89.923c0-3.977-3.31-7.287-7.285-7.287H65.98 c-3.977,0-7.285,3.31-7.285,7.287v218.694H58.694z"/> <g> <path style="fill:#FFFFFF;" d="M468.718,324.031v24.827c0,12.489-11.26,22.702-25.025,22.702H68.305 c-13.765,0-25.025-10.213-25.025-22.702v-24.827H468.718z"/> <path style="fill:#FFFFFF;" d="M141.237,115.528H370.76h34.166c4.141,0,7.527,3.388,7.527,7.527v44.796v140.768H99.543 l-0.002-140.768v-44.796c0-4.141,3.386-7.527,7.527-7.527h34.166H141.237z"/> </g> <path style="fill:#828282;" d="M107.07,115.528H404.93c4.141,0,7.527,3.386,7.527,7.527v15.053H99.543v-15.053 C99.543,118.915,102.929,115.528,107.07,115.528z"/> <path style="fill:#FFFFFF;" d="M226.382,123.325h163.621c1.114,0,2.022,0.913,2.022,2.022v3.753c0,1.111-0.91,2.022-2.022,2.022 H226.382c-1.109,0-2.02-0.908-2.02-2.022v-3.753C224.363,124.233,225.271,123.325,226.382,123.325z"/> <path style="fill:#21D0C3;" d="M117.331,121.984c2.392,0,4.333,1.938,4.333,4.335c0,2.394-1.942,4.333-4.333,4.333 c-2.396,0-4.337-1.938-4.337-4.333C112.995,123.922,114.937,121.984,117.331,121.984z"/> <path style="fill:#FAD24D;" d="M134.439,121.984c2.396,0,4.335,1.938,4.335,4.335c0,2.394-1.938,4.333-4.335,4.333 c-2.392,0-4.333-1.938-4.333-4.333C130.106,123.922,132.047,121.984,134.439,121.984z"/> <path style="fill:#FAD24D;" d="M151.552,121.984c2.392,0,4.333,1.938,4.333,4.335c0,2.394-1.942,4.333-4.333,4.333 c-2.396,0-4.337-1.938-4.337-4.333C147.214,123.922,149.156,121.984,151.552,121.984z"/> <path style="fill:#20D2BB;" d="M331.545,170.048c-9.369-11.079-26.099-12.482-37.177-3.113l-57.598,48.873 c-11.079,9.369-12.882,26.097-2.901,37.177v0.002c8.982,11.079,25.888,12.48,36.967,3.111l57.703-48.873 C339.616,197.857,340.914,181.127,331.545,170.048z M322.029,199.491l-57.959,49.003c-6.462,5.463-16.216,4.646-21.681-1.814 l-1.237-1.464c-5.461-6.46-4.646-16.216,1.814-21.681l57.959-49.003c6.462-5.463,16.216-4.646,21.681,1.814l1.237,1.464 C329.307,184.274,328.489,194.028,322.029,199.491z"/> <path style="fill:#FAD24D;" d="M263.812,198.222v-0.002c-8.982-11.079-26.02-12.335-37.1-2.968l-57.73,49.019h-0.002 c-11.077,8.982-12.48,25.949-3.111,36.928h0.002c9.367,10.979,26.094,12.461,37.174,3.093l57.73-48.884 C271.854,226.039,273.792,209.301,263.812,198.222z M254.448,227.665l-57.959,49.003c-6.46,5.461-16.216,4.646-21.681-1.814 l-1.237-1.464c-5.463-6.462-4.646-16.216,1.814-21.681l57.959-49.003c6.462-5.463,16.216-4.646,21.681,1.816l1.237,1.462 C261.724,212.447,260.908,222.202,254.448,227.665z"/> <path style="fill:#20D2BB;" d="M252.618,202.235l8.33-7.042c1.069,0.913,2.081,1.922,3.016,3.029l0.002,0.002 c1.282,1.512,2.357,3.133,3.237,4.825l-8.423,7.122c-0.593-1.484-1.431-2.897-2.516-4.181l-1.237-1.462 c-0.732-0.866-1.541-1.63-2.407-2.291L252.618,202.235z"/> <circle style="fill:#FAD24D;" cx="331.763" cy="192.485" r="20.412"/> <path style="fill:#FEFEFE;" d="M327.934,179.674h7.651v8.98h8.98v7.651h-8.98v8.98h-7.651v-8.98h-8.983v-7.651h8.983V179.674z"/> <circle style="fill:#B6B6B8;" cx="256.001" cy="346.804" r="7.816"/> <path style="fill:#C2C2C4;" d="M305.064,407.273l36.096,11.566H170.835l29.124-11.566v-35.712h105.106v35.712H305.064z"/> <path style="fill:#ECF0F1;" d="M199.959,407.273h105.106l36.096,11.566v4.98H256h-85.165v-4.98L199.959,407.273z"/> <path style="fill:#B0B0B0;" d="M199.959,371.561h105.106v36.281L199.959,371.561z"/> </g>

</svg>